<svg id="ww-set2-mail-open-sharp" width="100%" height="100%" viewBox="0 0 32 32" xmlns="http://www.w3.org/2000/svg" fill="rgb(3, 112, 32)"><path d="M29.4406 10.5224L16.4525 4.1055C16.3118 4.0361 16.1569 4 16 4C15.8431 4 15.6882 4.0361 15.5475 4.1055L2.5625 10.5224C2.39459 10.6041 2.2529 10.7311 2.15349 10.8892C2.05408 11.0473 2.00091 11.23 2 11.4168V26.9999C2.00074 27.132 2.0275 27.2627 2.07876 27.3844C2.13001 27.5062 2.20476 27.6167 2.29873 27.7095C2.3927 27.8024 2.50405 27.8758 2.62642 27.9257C2.74878 27.9755 2.87976 28.0007 3.01187 27.9999H28.9881C29.1202 28.0007 29.2512 27.9755 29.3736 27.9257C29.4959 27.8758 29.6073 27.8024 29.7013 27.7095C29.7952 27.6167 29.87 27.5062 29.9212 27.3844C29.9725 27.2627 29.9993 27.132 30 26.9999V11.4168C29.9994 11.2304 29.9467 11.0478 29.8478 10.8898C29.749 10.7318 29.608 10.6045 29.4406 10.5224ZM16 6.118L26.8125 11.458L15.8313 16.8818L5.01875 11.5418L16 6.118Z"></path></svg>